<?xml version="1.0" standalone="no"?>
<!DOCTYPE svg PUBLIC "-//W3C//DTD SVG 20010904//EN"
 "http://www.w3.org/TR/2001/REC-SVG-20010904/DTD/svg10.dtd">
<svg version="1.0" xmlns="http://www.w3.org/2000/svg"
 width="1024.000000pt" height="1024.000000pt" viewBox="0 0 1024.000000 1024.000000"
 preserveAspectRatio="xMidYMid meet">

<g transform="translate(0.000000,1024.000000) scale(0.100000,-0.100000)"
fill="#000000" stroke="none">
<path d="M1313 9250 c-18 -7 -22 -20 -28 -82 -3 -40 -5 -959 -3 -2041 3 -1935
3 -1969 22 -1983 17 -12 98 -14 478 -14 430 0 459 1 476 18 18 18 18 51 14
755 l-5 737 221 0 221 0 115 -217 c112 -213 416 -807 557 -1089 39 -78 79
-151 90 -163 20 -21 25 -21 512 -21 516 0 517 0 517 43 0 20 -106 230 -305
602 -62 116 -188 356 -280 535 -93 179 -186 356 -207 394 -21 38 -37 70 -36
71 2 2 35 19 73 38 355 179 585 546 625 997 17 187 -18 449 -81 608 -188 473
-525 732 -1052 807 -83 12 -267 15 -1002 14 -495 0 -910 -4 -922 -9z m1690
-858 c226 -62 377 -216 394 -402 16 -180 -99 -396 -251 -470 -127 -62 -177
-67 -618 -62 l-258 2 0 481 0 481 328 -4 c295 -4 335 -7 405 -26z"/>
<path d="M6299 5479 c-29 -29 -41 -59 -218 -558 -359 -1004 -549 -1529 -603
-1666 -35 -88 -299 -824 -410 -1145 -22 -63 -96 -267 -164 -454 -69 -186 -124
-348 -122 -359 2 -13 13 -24 28 -28 14 -4 247 -7 518 -8 l493 -1 24 53 c14 28
61 165 106 302 45 138 100 306 123 375 l42 125 200 5 c109 3 440 3 734 0 l534
-5 137 -414 c90 -276 142 -418 154 -427 15 -11 113 -14 513 -14 300 0 500 4
511 10 10 5 21 17 25 26 6 17 -114 378 -211 634 -84 221 -168 454 -244 679
-39 112 -99 278 -134 370 -35 91 -144 393 -244 671 -99 278 -228 638 -286 800
-59 162 -147 410 -196 550 -151 429 -161 454 -186 478 l-24 22 -540 0 c-531 0
-539 0 -560 -21z m603 -1276 c44 -132 263 -768 362 -1055 27 -76 46 -144 43
-150 -3 -10 -103 -13 -456 -12 -248 1 -454 4 -457 7 -3 3 93 297 214 654 121
356 223 658 226 671 4 12 11 22 14 22 4 0 28 -62 54 -137z"/>
</g>
</svg>
